<svg width="70" height="84" viewBox="0 0 70 84" fill="none" xmlns="http://www.w3.org/2000/svg">
<path d="M61.998 8.00196C51.3282 -2.66732 33.9681 -2.66732 23.2985 8.00196C21.9472 9.35323 20.7402 10.8435 19.7053 12.4319C18.6309 12.2095 17.483 12.6423 16.8438 13.6119L7.29243 28.1084C6.88692 28.7243 6.74481 29.4771 6.89825 30.1984C6.99626 30.6593 7.21065 31.082 7.51386 31.4311L3.33478 37.9458C-0.733421 44.2875 -0.921166 52.2873 2.4224 58.757C-1.47705 64.9642 -0.622244 73.2124 4.65145 78.4864C7.75643 81.5911 11.8347 83.1435 15.9131 83.1435C19.9914 83.1435 24.07 81.5911 27.175 78.4864C30.1829 75.4782 31.8395 71.4789 31.8395 67.2248C31.8395 67.0836 31.8327 66.9436 31.8294 66.8033C31.9041 66.7568 31.9794 66.7127 32.0539 66.6652L57.6769 50.2261C57.687 50.2197 57.6971 50.2129 57.7072 50.2062C59.2428 49.1924 60.6863 48.0133 61.998 46.7018C72.6673 36.0322 72.6673 18.6715 61.998 8.00196ZM25.4886 54.5026C22.2688 52.0864 18.2214 50.9712 14.2181 51.3924C13.559 49.4261 13.7701 47.2041 14.9357 45.3876L19.4416 38.3636C20.1791 38.2457 20.8673 37.8343 21.3102 37.1624L30.8612 22.6662C31.2668 22.0503 31.4089 21.2975 31.2554 20.5762C31.2242 20.4298 31.1789 20.2887 31.1253 20.1511L31.2 20.0345C31.7246 19.2161 32.3454 18.4467 33.0444 17.7475C35.6039 15.188 39.0148 13.7782 42.6484 13.7782C46.2823 13.7782 49.693 15.188 52.2528 17.7475C54.8123 20.307 56.2221 23.718 56.2221 27.3516C56.2221 30.9855 54.8123 34.3961 52.2528 36.9557C51.6111 37.5976 50.9089 38.174 50.1659 38.6692L25.4886 54.5026ZM24.7202 21.9661L18.2024 31.8584L13.4335 28.8082L19.9512 18.9163L24.7202 21.9661ZM7.9748 40.9225L12.0966 34.4972L14.4191 35.9826L10.2954 42.411C7.76439 46.3567 7.73223 51.37 9.96403 55.331C10.115 55.7972 10.3793 56.1987 10.7202 56.5108C11.1006 57.0366 11.5233 57.5383 11.9925 58.0075C14.3979 60.413 17.6282 61.6601 20.8747 61.6601C22.0538 61.6601 23.2345 61.4944 24.3793 61.1615C24.9306 61.9275 25.3716 62.7587 25.6932 63.6362C20.3151 65.4187 14.1808 64.0941 10.0434 59.9566C5.00305 54.9163 4.13293 46.9113 7.9748 40.9225ZM23.2767 74.5879C19.2168 78.6478 12.6102 78.6481 8.55028 74.5879C5.6698 71.7074 4.80489 67.471 6.08265 63.7896C6.10379 63.8111 6.12369 63.8334 6.14483 63.8546C10.138 67.8477 15.4987 69.9166 20.8906 69.9166C22.6495 69.9166 24.4115 69.6936 26.1306 69.2483C25.737 71.2587 24.7576 73.107 23.2767 74.5879ZM58.0998 42.8033C57.0542 43.8486 55.9054 44.7879 54.6846 45.5956L30.6003 61.0476C30.2429 60.1983 29.8092 59.3818 29.3057 58.6032L53.1796 43.2857C54.2405 42.5828 55.2399 41.7647 56.1504 40.8542C63.5956 33.409 63.5956 21.2948 56.1504 13.8493C52.4277 10.1266 47.5377 8.26535 42.6478 8.26535C37.7579 8.26535 32.8682 10.1266 29.1455 13.8493C28.2595 14.7353 27.4678 15.7078 26.7768 16.7377L24.4544 15.2523C25.2525 14.0554 26.1695 12.9271 27.1964 11.9005C31.4566 7.63994 37.0516 5.51044 42.6478 5.51044C48.2431 5.51044 53.8399 7.64086 58.0992 11.9002C66.6197 20.4204 66.6197 34.2834 58.0998 42.8033Z" fill="black"/>
</svg>
