<svg width="90" height="90" viewBox="0 0 90 90" fill="none" xmlns="http://www.w3.org/2000/svg">
<path d="M45 0C20.1487 0 0 20.1487 0 45C0 69.8512 20.1487 90 45 90C69.8512 90 90 69.8512 90 45C90 20.1487 69.8512 0 45 0ZM74.2669 28.2347C71.0423 31.0092 68.4942 33.525 63.7805 33.7008C60.1777 33.833 57.5297 33.8484 54.8381 31.4536C51.0033 27.9703 53.6302 23.3297 53.7722 18.0886C53.8214 16.0734 54.1575 14.3156 54.5963 12.6562C62.9845 15.1397 69.9933 20.797 74.2669 28.2347ZM13.8755 58.0627C16.8145 55.2066 21.6211 53.6906 25.0537 49.8839C28.5581 45.9675 28.4428 38.8645 33.6727 39.5128C37.9463 40.1063 37.1883 45.4613 40.5717 48.1261C44.5598 51.3127 49.4705 49.2848 52.6514 53.2955C56.8266 58.597 55.8534 64.6383 52.6514 70.5825C50.2945 74.8786 47.257 76.4002 43.1972 78.6572C29.9756 77.9597 18.7594 69.6867 13.8755 58.0627Z" fill="#231F20"/>
</svg>
