<svg width="60" height="60" viewBox="0 0 60 60" fill="none" xmlns="http://www.w3.org/2000/svg">
<path fill-rule="evenodd" clip-rule="evenodd" d="M43.8831 0.638428H16.0767C9.49582 0.638428 4.15967 5.97461 4.15967 12.5555V40.3619C4.15967 46.9427 9.49582 52.2789 16.0767 52.2789H22.0732C23.8028 52.2789 24.5879 52.4239 25.4088 52.8966C26.3127 53.417 26.8158 54.7862 27.3165 56.1493C27.9452 57.8603 28.5702 59.5615 29.9799 59.5615C31.3358 59.5615 31.9658 57.9698 32.6187 56.3201C33.1853 54.8884 33.7692 53.4132 34.8598 52.8966C35.741 52.4792 36.4041 52.2789 37.9483 52.2789H43.8831C50.4639 52.2789 55.8001 46.9427 55.8001 40.3619V12.5555C55.8001 5.97461 50.4639 0.638428 43.8831 0.638428ZM29.9181 43.4826C22.8143 43.4826 16.2003 39.9671 12.2213 34.0748C11.546 33.0751 11.8109 31.7179 12.8106 31.0426C13.8102 30.3673 15.1675 30.632 15.8428 31.6318C19.0074 36.3125 24.2708 39.113 29.9181 39.113C35.5655 39.113 40.8288 36.3125 44.0001 31.6252C44.6754 30.6254 46.0326 30.3606 47.0323 31.0359C48.032 31.7112 48.2968 33.0685 47.6215 34.0681C43.6359 39.9671 37.022 43.4826 29.9181 43.4826ZM39.8489 12.9087V16.881H35.8765V20.8534H39.8489V24.8257H35.8765V28.7981H31.9041V24.8257H27.9318V28.7981H23.9595V24.8257H19.9871V20.8534H23.9595V16.881H19.9871V12.9087H23.9595V8.93633H27.9318V12.9087H31.9041V8.93633H35.8765V12.9087H39.8489ZM27.9318 20.8534H31.9041V16.881H27.9318V20.8534Z" fill="url(#paint0_linear_95_11)"/>
<defs>
<linearGradient id="paint0_linear_95_11" x1="45.2248" y1="50.0022" x2="-6.83606" y2="3.57854" gradientUnits="userSpaceOnUse">
<stop stop-color="#3C16D3"/>
<stop offset="0.442708" stop-color="#1271FF"/>
<stop offset="0.989583" stop-color="#2CF2FF"/>
</linearGradient>
</defs>
</svg>
