<svg xmlns="http://www.w3.org/2000/svg" viewBox="0 0 33 37">
  <g>
    <path d="M 24.87 0 L 7.461 0 C 3.341 0 0 3.341 0 7.461 L 0 24.87 C 0 28.991 3.341 32.332 7.461 32.332 L 11.216 32.332 C 12.298 32.332 12.79 32.422 13.304 32.718 C 13.87 33.044 14.185 33.901 14.498 34.755 C 14.892 35.826 15.283 36.891 16.166 36.891 C 17.015 36.891 17.409 35.895 17.818 34.862 C 18.173 33.965 18.538 33.042 19.221 32.718 C 19.773 32.457 20.188 32.332 21.155 32.332 L 24.87 32.332 C 28.991 32.332 32.332 28.991 32.332 24.87 L 32.332 7.461 C 32.332 3.341 28.991 0 24.87 0 Z M 16.127 26.824 C 11.679 26.824 7.538 24.623 5.047 20.934 C 4.624 20.308 4.79 19.458 5.416 19.036 C 6.042 18.613 6.891 18.779 7.314 19.405 C 9.295 22.335 12.591 24.088 16.127 24.088 C 19.662 24.088 22.958 22.335 24.943 19.4 C 25.366 18.774 26.216 18.609 26.842 19.031 C 27.467 19.454 27.633 20.304 27.21 20.93 C 24.715 24.623 20.574 26.824 16.127 26.824 Z M 22.346 7.682 L 22.346 10.169 L 19.859 10.169 L 19.859 12.656 L 22.346 12.656 L 22.346 15.144 L 19.859 15.144 L 19.859 17.631 L 17.372 17.631 L 17.372 15.144 L 14.885 15.144 L 14.885 17.631 L 12.398 17.631 L 12.398 15.144 L 9.911 15.144 L 9.911 12.656 L 12.398 12.656 L 12.398 10.169 L 9.911 10.169 L 9.911 7.682 L 12.398 7.682 L 12.398 5.195 L 14.885 5.195 L 14.885 7.682 L 17.372 7.682 L 17.372 5.195 L 19.859 5.195 L 19.859 7.682 Z M 14.885 12.656 L 17.372 12.656 L 17.372 10.169 L 14.885 10.169 Z" fill="rgb(0,123,255)"/>
  </g>
</svg>
