<svg width="48" height="48" viewBox="0 0 48 48" fill="none" xmlns="http://www.w3.org/2000/svg">
<path d="M24 0.0955811C10.5342 0.0955811 0.0956421 9.95949 0.0956421 23.2828C0.0956421 30.2524 2.95174 36.2734 7.60257 40.4337C7.99365 40.7827 8.22887 41.2733 8.24512 41.7963L8.37516 46.0494C8.41628 47.4052 9.81803 48.2878 11.0582 47.7399L15.8027 45.6449C16.2053 45.468 16.6556 45.4345 17.0792 45.5522C19.2603 46.1517 21.5799 46.471 23.9991 46.471C37.4649 46.471 47.9035 36.6071 47.9035 23.2838C47.9035 9.96044 37.4658 0.0955811 24 0.0955811ZM38.8131 17.0954L30.4905 29.9579C30.0679 30.611 29.1968 30.7974 28.5438 30.3748L20.8341 25.3864C20.5358 25.1933 20.1495 25.199 19.8569 25.4008L11.1672 31.3941C9.89931 32.268 8.34935 30.7639 9.186 29.4712L17.5095 16.6087C17.9321 15.9557 18.8032 15.7692 19.4553 16.1918L27.1669 21.1812C27.4652 21.3743 27.8515 21.3686 28.1441 21.1668L36.8319 15.1745C38.0998 14.2996 39.6497 15.8046 38.8131 17.0973V17.0954Z" fill="white"/>
</svg>
