<svg width="120" height="120" viewBox="0 0 120 120" fill="none" xmlns="http://www.w3.org/2000/svg">
<path fill-rule="evenodd" clip-rule="evenodd" d="M15.9298 90.9785C15.5225 91.645 16.0021 92.5 16.783 92.5H100.967C101.689 92.5 102.173 91.758 101.883 91.0975L75.959 32.18C75.6025 31.3688 74.4445 31.3885 74.1155 32.2114L62.9015 60.246C62.769 60.5775 62.823 60.9545 63.0435 61.2355L71.4315 71.911C73.1375 74.0825 72.7605 77.2255 70.589 78.9315C68.4175 80.6375 65.2745 80.2605 63.5685 78.089L42.0915 50.755C41.6608 50.207 40.8155 50.2565 40.4519 50.8515L15.9298 90.9785Z" fill="black"/>
<path d="M100.968 95H16.7831V90H100.968V95ZM78.2475 31.1732L104.171 90.0905L99.5945 92.104L73.671 33.1869L78.2475 31.1732ZM60.5805 59.3175L71.794 31.2829L76.4365 33.1399L65.2225 61.1745L60.5805 59.3175ZM65.0095 59.691L73.3975 70.3665L69.466 73.4555L61.078 62.78L65.0095 59.691ZM73.3975 70.3665C75.9565 73.6235 75.3905 78.3385 72.1335 80.8975L69.0445 76.966C70.13 76.113 70.319 74.541 69.466 73.4555L73.3975 70.3665ZM72.1335 80.8975C68.8765 83.4565 64.1615 82.8905 61.6025 79.6335L65.534 76.5445C66.387 77.63 67.959 77.819 69.0445 76.966L72.1335 80.8975ZM61.6025 79.6335L40.1258 52.2995L44.0574 49.2104L65.534 76.5445L61.6025 79.6335ZM13.7966 89.675L38.3188 49.5477L42.5852 52.155L18.063 92.282L13.7966 89.675ZM65.2225 61.1745C65.4215 60.6775 65.3405 60.112 65.0095 59.691L61.078 62.78C60.306 61.7975 60.1165 60.478 60.5805 59.3175L65.2225 61.1745ZM40.1258 52.2995C40.7719 53.122 42.0399 53.047 42.5852 52.155L38.3188 49.5477C39.5911 47.4656 42.5499 47.2917 44.0574 49.2104L40.1258 52.2995ZM73.671 33.1869C74.2065 34.4037 75.943 34.3742 76.4365 33.1399L71.794 31.2829C72.9465 28.4028 76.998 28.3339 78.2475 31.1732L73.671 33.1869ZM16.7831 95C14.0498 95 12.3713 92.007 13.7966 89.675L18.063 92.282C18.6738 91.2825 17.9545 90 16.7831 90V95ZM100.968 90C99.8845 90 99.1585 91.1125 99.5945 92.104L104.171 90.0905C105.189 92.4035 103.495 95 100.968 95V90Z" fill="black"/>
</svg>
